#!OML:ASF E:\Steps\Project 1\Capture day 1\Session 2\Subject.ASF
:FULLY-SPECIFIED
:DEGREES
96
root -1.25578 19.5474 20.5481 -153.684 1.07564 180.197
lowerback -26.0387 -4.19314 -7.96799
upperback -0.384569 -2.73304 0.163784
thorax 14.639 -1.63786 3.77223
lowerneck -5.63873 -8.96276 0.0723105
upperneck 20.1066 -11.6491 0.733749
head 7.11778 -5.19095 -0.635965
rclavicle -3.97569e-016 2.94201e-014
rhumerus -38.5193 -16.1881 -79.5794
rradius 38.4174
rwrist -5.95611
rhand -3.19828 -56.5002
rfingers 7.12502
rthumb 22.5237 -85.2065
lclavicle -3.97569e-016 2.94201e-014
lhumerus -32.01 9.15558 76.7433
lradius 24.279
lwrist -3.09197
lhand -20.8685 -11.7874
lfingers 7.12502
lthumb 5.50134 18.1212
rfemur -32.2975 8.6366 21.7441
rtibia 21.9631
rfoot -23.1035 -3.18205
rtoes -27.6487
lfemur -30.9195 -9.9429 -20.0427
ltibia 22.6399
lfoot -15.3314 3.32928
ltoes -13.4052
97
root -1.25263 19.5395 20.5521 -153.701 1.21315 180.121
lowerback -25.8838 -4.25959 -8.12844
upperback -0.40731 -2.77387 0.0932501
thorax 14.5363 -1.65892 3.77072
lowerneck -5.7224 -9.11805 0.00674359
upperneck 20.4263 -11.8419 0.701584
head 7.23993 -5.27537 -0.663457
rclavicle -1.39149e-014 1.59028e-015
rhumerus -38.6518 -16.1111 -79.6533
rradius 38.6149
rwrist -6.19567
rhand -3.07901 -55.7837
rfingers 7.12502
rthumb 22.6381 -84.4761
lclavicle -1.39149e-014 1.59028e-015
lhumerus -32.0498 9.19947 76.5676
lradius 24.2228
lwrist -3.37322
lhand -21.128 -12.016
lfingers 7.12502
lthumb 5.25078 17.8989
rfemur -32.6691 8.45028 21.7188
rtibia 22.6654
rfoot -23.3054 -2.95312
rtoes -27.1086
lfemur -31.0069 -9.98272 -20.13
ltibia 22.8296
lfoot -15.4254 3.36771
ltoes -12.4133
98
root -1.24822 19.5332 20.5567 -153.719 1.33314 180.135
lowerback -25.7114 -4.32013 -8.18907
upperback -0.437064 -2.84734 0.0601666
thorax 14.4163 -1.68953 3.74395
lowerneck -5.71024 -9.27107 -0.177575
upperneck 20.6303 -12.044 0.808943
head 7.32505 -5.36669 -0.622836
rclavicle 4.57205e-015 3.10104e-014
rhumerus -38.7008 -15.8605 -79.7849
rradius 38.7216
rwrist -6.35457
rhand -2.99343 -55.4516
rfingers 7.12502
rthumb 22.7203 -84.1339
lclavicle 4.57205e-015 3.10104e-014
lhumerus -32.1433 9.30363 76.3292
lradius 24.2485
lwrist -3.70535
lhand -21.1275 -12.1196
lfingers 7.12502
lthumb 5.25124 17.7954
rfemur -33.0554 8.40854 21.7572
rtibia 23.3896
rfoot -23.4885 -2.74586
rtoes -26.4174
lfemur -31.1206 -9.9764 -20.0992
ltibia 23.0487
lfoot -15.5953 3.28688
ltoes -10.5887
99
root -1.24252 19.5243 20.5598 -153.71 1.4407 180.184
lowerback -25.7086 -4.40116 -8.26121
upperback -0.407423 -2.93385 0.0579266
thorax 14.4663 -1.73651 3.74771
lowerneck -5.73207 -9.29154 -0.33381
upperneck 20.9653 -12.0443 0.847306
head 7.45173 -5.35635 -0.596531
rclavicle -2.18663e-014 1.03368e-014
rhumerus -38.5779 -15.5166 -79.9704
rradius 38.7293
rwrist -6.51934
rhand -3.03547 -55.7741
rfingers 7.12502
rthumb 22.6799 -84.4614
lclavicle -2.18663e-014 1.03368e-014
lhumerus -32.1639 9.32061 76.1681
lradius 24.3147
lwrist -3.67717
lhand -20.962 -12.0713
lfingers 7.12502
lthumb 5.41103 17.8396
rfemur -33.501 8.7193 21.7467
rtibia 24.2083
rfoot -23.755 -2.80537
rtoes -25.7447
lfemur -31.2598 -9.88986 -20.05
ltibia 23.2937
lfoot -15.7486 3.28921
ltoes -11.0426
100
root -1.23886 19.5166 20.5608 -153.733 1.47843 180.209
lowerback -25.6983 -4.49275 -8.32539
upperback -0.371112 -3.03219 0.0278414
thorax 14.5198 -1.78669 3.70979
lowerneck -5.84059 -9.22758 -0.359532
upperneck 21.5 -11.8984 0.702117
head 7.6381 -5.27026 -0.644361
rclavicle -2.72335e-014 -5.56597e-015
rhumerus -38.5812 -15.301 -80.1434
rradius 38.8609
rwrist -6.7381
rhand -3.19798 -55.6422
rfingers 7.12502
rthumb 22.524 -84.3485
lclavicle -2.72335e-014 -5.56597e-015
lhumerus -32.1722 9.10607 76.0911
lradius 24.3867
lwrist -3.35514
lhand -20.8367 -11.9342
lfingers 7.12502
lthumb 5.53205 17.9736
rfemur -33.8459 8.75548 21.7993
rtibia 24.9385
rfoot -23.9502 -2.79128
rtoes -25.6088
lfemur -31.3549 -9.89245 -20.0291
ltibia 23.5704
lfoot -15.9313 3.3412
ltoes -12.1656
101
root -1.23528 19.5124 20.5633 -153.804 1.48309 180.205
lowerback -25.5975 -4.56259 -8.37939
upperback -0.355733 -3.10585 -0.0469829
thorax 14.491 -1.81896 3.6274
lowerneck -5.73829 -9.27021 -0.297497
upperneck 21.7676 -11.92 0.588062
head 7.69703 -5.2696 -0.692182
rclavicle 3.57812e-014 4.45278e-014
rhumerus -38.8147 -15.2563 -80.2614
rradius 39.1493
rwrist -6.93008
rhand -3.05753 -55.4098
rfingers 7.12502
rthumb 22.6588 -84.0996
lclavicle 3.57812e-014 4.45278e-014
lhumerus -32.0739 9.09098 75.8761
lradius 24.2326
lwrist -3.50721
lhand -20.8992 -12.1449
lfingers 7.12502
lthumb 5.47167 17.7644
rfemur -34.0999 8.38567 21.9375
rtibia 25.5768
rfoot -24.0614 -2.4423
rtoes -25.2855
lfemur -31.4021 -9.96423 -20.0148
ltibia 23.8418
lfoot -16.1196 3.30478
ltoes -11.4973
